<svg xmlns="http://www.w3.org/2000/svg" width="16" height="16" viewBox="0 0 16 16">
  <g id="Attach" transform="translate(-13314 3107)">
    <g id="link" transform="translate(13312.628 -3105.373)">
      <path id="Path_2391" data-name="Path 2391" d="M9.129,85.046a.981.981,0,0,1-.289.7l-2.1,2.1a.988.988,0,0,1-1.4,0l-.7-.7a.988.988,0,0,1,0-1.4l2.1-2.1a.989.989,0,0,1,.8-.284l.784-.784a1.977,1.977,0,0,0-2.28.37l-2.1,2.1a1.975,1.975,0,0,0,0,2.794l.7.7a1.975,1.975,0,0,0,2.794,0l2.1-2.1a1.976,1.976,0,0,0,.233-2.513l-.724.724a.985.985,0,0,1,.082.393Z" transform="translate(0 -76.937)" fill="#575656"/>
      <path id="Path_2392" data-name="Path 2392" d="M88.538,1.65l-.7-.7a1.975,1.975,0,0,0-2.794,0l-2.1,2.1a1.977,1.977,0,0,0-.305,2.4l.749-.749a.992.992,0,0,1-.034-.255.981.981,0,0,1,.289-.7l2.1-2.1a.988.988,0,0,1,1.4,0l.7.7a.988.988,0,0,1,0,1.4l-2.1,2.1a.983.983,0,0,1-.953.255l-.749.749a1.977,1.977,0,0,0,2.4-.305l2.1-2.1A1.975,1.975,0,0,0,88.538,1.65Z" transform="translate(-74.123 0)" fill="#575656"/>
      <path id="Path_2393" data-name="Path 2393" d="M0,0H6.635V.988H0Z" transform="translate(6.518 8.149) rotate(-45)" fill="#575656"/>
    </g>
    <rect id="Rectangle_1334" data-name="Rectangle 1334" width="16" height="16" transform="translate(13314 -3107)" fill="none"/>
  </g>
</svg>
