<?xml version="1.0" encoding="iso-8859-1"?>
<!-- Generator: Adobe Illustrator 19.0.0, SVG Export Plug-In . SVG Version: 6.00 Build 0)  -->
<svg version="1.1" id="Capa_1" xmlns="http://www.w3.org/2000/svg" xmlns:xlink="http://www.w3.org/1999/xlink" x="0px" y="0px"
	 viewBox="0 0 480 480" style="enable-background:new 0 0 480 480;" xml:space="preserve">
<g>
	<g>
		<path d="M472,176h-80V96c0-4.418-3.582-8-8-8h-80V8c0-4.418-3.582-8-8-8H8C3.582,0,0,3.582,0,8v288c0,4.418,3.582,8,8,8h80v80
			c0,4.418,3.582,8,8,8h80v80c0,4.418,3.582,8,8,8h288c4.418,0,8-3.582,8-8V184C480,179.582,476.418,176,472,176z M88,96v192H16V16
			h272v72H96C91.582,88,88,91.582,88,96z M176,184v192h-72V104h272v72H184C179.582,176,176,179.582,176,184z M464,464H192V192h272
			V464z"/>
	</g>
</g>
<g>
</g>
<g>
</g>
<g>
</g>
<g>
</g>
<g>
</g>
<g>
</g>
<g>
</g>
<g>
</g>
<g>
</g>
<g>
</g>
<g>
</g>
<g>
</g>
<g>
</g>
<g>
</g>
<g>
</g>
</svg>
