<svg xmlns="http://www.w3.org/2000/svg" version="1.0" width="90.000000" height="90.000000" preserveAspectRatio="xMidYMid meet"><rect id="backgroundrect" width="100%" height="100%" x="0" y="0" fill="none" stroke="none"/>


<g class="currentLayer" style=""><title>Layer 1</title><g transform="translate(0,90) scale(0.10000000149011612,-0.10000000149011612) " fill="#3977ff" stroke="none" id="svg_1" class="" fill-opacity="1">
<path d="M410 818 c-52 -14 -100 -55 -121 -103 -14 -32 -18 -60 -15 -126 3 -71 8 -93 35 -143 35 -68 41 -124 14 -149 -10 -8 -48 -27 -85 -42 -95 -38 -164 -119 -144 -170 4 -13 35 -15 191 -15 l185 0 0 -35 0 -35 215 0 215 0 0 205 c0 157 -3 205 -12 205 -7 1 -77 1 -155 0 -87 -1 -144 3 -148 9 -6 11 10 47 30 68 8 7 12 45 13 100 0 114 -20 167 -75 189 -21 9 -44 25 -51 35 -14 21 -38 23 -92 7z m78 -48 c7 -11 23 -20 37 -20 45 0 65 -49 63 -153 -2 -55 -7 -92 -15 -98 -6 -6 -15 -24 -18 -40 -6 -27 -33 -51 -52 -48 -31 5 -33 -2 -33 -151 l0 -150 -170 0 c-103 0 -170 4 -170 10 0 26 64 78 127 104 95 38 123 67 123 125 0 29 -8 57 -20 76 -11 17 -20 37 -20 46 0 9 -6 22 -13 28 -9 7 -14 39 -15 99 -2 106 16 143 81 172 54 25 79 25 95 0z m373 -559 c0 -90 -2 -165 -5 -168 -2 -2 -81 -5 -175 -6 -134 -2 -172 1 -176 11 -8 21 -6 318 2 326 4 3 85 5 180 4 l174 -3 0 -164z" id="svg_2" fill="#3977ff"/>
<path d="M600 326 c0 -20 9 -21 95 -18 57 3 75 7 75 18 0 11 -18 14 -85 14 -67 0 -85 -3 -85 -14z" id="svg_3" fill="#3977ff"/>
</g></g></svg>