<svg xmlns="http://www.w3.org/2000/svg" width="11.626" height="13.914" viewBox="0 0 11.626 13.914">
  <path id="Attachments" d="M332.566,492.68l-4.223,6.34a3.024,3.024,0,0,1-3.909.877,2.438,2.438,0,0,1-.972-3.533l4.591-6.89a1.89,1.89,0,0,1,2.443-.549,1.525,1.525,0,0,1,.608,2.207l-3.856,5.788a.758.758,0,0,1-.978.22.61.61,0,0,1-.243-.883l3.488-5.236-.915-.5-3.488,5.238a1.523,1.523,0,0,0,.607,2.207,1.893,1.893,0,0,0,2.444-.549l3.856-5.788a2.438,2.438,0,0,0-.972-3.532,3.024,3.024,0,0,0-3.909.877l-4.591,6.89a3.353,3.353,0,0,0,1.335,4.858,4.16,4.16,0,0,0,5.375-1.207l4.223-6.339Z" transform="translate(-321.927 -487.549)" fill="#8b8b8b" stroke="#8b8b8b" stroke-width="0.1"/>
</svg>
