<svg xmlns="http://www.w3.org/2000/svg" width="24" height="24" viewBox="0 0 24 24">
  <g id="Time_log" data-name="Time log" transform="translate(-11081 2057)">
    <g id="Group_1440" data-name="Group 1440" transform="translate(10790.593 -2543.509)">
      <g id="Group_387" data-name="Group 387" transform="translate(292.408 489.509)">
        <g id="Layer_1" data-name="Layer 1">
          <g id="Group_386" data-name="Group 386">
            <path id="Path_243" data-name="Path 243" d="M310.93,494.979a.412.412,0,0,0-.372-.237h-1.212a8.995,8.995,0,1,0-1.054,6.138.818.818,0,1,0-1.416-.819,7.37,7.37,0,1,1,.8-5.32h-1.2a.409.409,0,0,0-.314.672l2.046,2.455a.408.408,0,0,0,.628,0l2.046-2.455A.411.411,0,0,0,310.93,494.979Z" transform="translate(-291.498 -487.379)" fill="#686868"/>
            <path id="Path_244" data-name="Path 244" d="M297.921,488.728a.818.818,0,0,0-.819.819v4.963a1.431,1.431,0,0,0,.819,2.605,1.41,1.41,0,0,0,.6-.138l2.846,1.642a.818.818,0,1,0,.817-1.416l-2.848-1.645a1.428,1.428,0,0,0-.6-1.046v-4.965A.82.82,0,0,0,297.921,488.728Zm0,7.568a.613.613,0,1,1,.613-.614A.615.615,0,0,1,297.921,496.3Z" transform="translate(-288.92 -486.682)" fill="#686868"/>
          </g>
        </g>
      </g>
    </g>
    <rect id="Rectangle_1450" data-name="Rectangle 1450" width="24" height="24" transform="translate(11081 -2057)" fill="none"/>
  </g>
</svg>
