<svg xmlns="http://www.w3.org/2000/svg" id="Capa_1" enable-background="new 0 0 512 512" height="512" viewBox="0 0 512 512" width="512"><g><g><path d="m337.153 455.427h-9.443v-60.617c0-8.284-6.716-15-15-15h-113.419c-8.284 0-15 6.716-15 15v60.617h-9.443c-8.284 0-15 6.716-15 15s6.716 15 15 15h162.306c8.284 0 15-6.716 15-15s-6.717-15-15.001-15z" fill="#d9f2ff" style="&#10;    fill: rgb(56 60 74);&#10;"/><path d="m337.153 455.427h-9.443v-60.617c0-8.284-6.716-15-15-15h-46.71l-10 29.834v75.783h81.153c8.284 0 15-6.716 15-15s-6.716-15-15-15z" fill="#c4e1ff" style="&#10;    fill: rgb(56 60 74);&#10;"/><path d="m496.774 26.573h-481.549c-8.408 0-15.225 6.816-15.225 15.225v268.671l15 29.834h482l15-29.834v-268.671c0-8.409-6.817-15.225-15.226-15.225z" fill="#d9f2ff"/><path d="m497 26.573h-241v95.441l10 15-10 15v62.851l10 15-10 15v65.605l10 29.835h231l15-29.834v-268.898c0-8.285-6.716-15-15-15z" fill="#c4e1ff"/><path d="m512 310.469h-512v83.949c0 8.409 6.817 15.225 15.225 15.225h481.549c8.409 0 15.225-6.817 15.225-15.225v-83.949z" fill="#61729b" style="&#10;    fill: rgb(64 68 82);&#10;"/><path d="m433.154 122.013h-354.308c-8.284 0-15 6.716-15 15s6.716 15 15 15h354.308c8.284 0 15-6.716 15-15s-6.716-15-15-15z" fill="#fed843"/><path d="m174.971 88.052c-26.997 0-48.96 21.964-48.96 48.961s21.963 48.96 48.96 48.96 48.96-21.963 48.96-48.96-21.963-48.961-48.96-48.961z" fill="#7ed8f6"/><path d="m433.154 214.864h-354.308c-8.284 0-15 6.716-15 15s6.716 15 15 15h354.308c8.284 0 15-6.716 15-15s-6.716-15-15-15z" fill="#fed843"/><path d="m433.154 214.864h-177.154v30h177.154c8.284 0 15-6.716 15-15s-6.716-15-15-15z" fill="#fabe2c"/><path d="m433.154 122.013h-177.154v30h177.154c8.284 0 15-6.716 15-15s-6.716-15-15-15z" fill="#fabe2c"/><circle cx="357.435" cy="229.864" fill="#e62e6b" r="48.96"/></g><path d="m254.543 409.644h242.231c8.409 0 15.225-6.817 15.225-15.225v-83.949h-257.456z" fill="#47568c" style="&#10;    fill: rgb(56 60 74);&#10;"/></g></svg>
