<?xml version="1.0" encoding="utf-8"?>
<!-- Generator: Adobe Illustrator 23.0.5, SVG Export Plug-In . SVG Version: 6.00 Build 0)  -->
<svg version="1.1" id="Layer_1" xmlns="http://www.w3.org/2000/svg" xmlns:xlink="http://www.w3.org/1999/xlink" x="0px" y="0px"
	 viewBox="0 0 115 115" style="enable-background:new 0 0 115 115;" xml:space="preserve">
<style type="text/css">
	.st0{fill:none;stroke:#3977FF;stroke-width:5;stroke-miterlimit:20;}
</style>
<title>Artboard 3</title>
<path class="st0" d="M47.5,20.2c0-5.5,4.5-10,10-10s10,4.5,10,10s-4.5,10-10,10S47.5,25.8,47.5,20.2z M20.5,41.6l23.6,1.5
	c0.2,0,0.4,0.2,0.4,0.4L49.2,87l1.9,17.8c0.2,1.7,1.6,2.9,3.3,2.9h6.4c1.7,0,3.1-1.3,3.3-2.9L66,87.1l4.7-43.5
	c0-0.2,0.2-0.4,0.4-0.4l23.6-1.5c1.7-0.1,3.2-1.4,3.4-3.1c0.2-1.9-1.2-3.6-3.1-3.8c-0.1,0-0.1,0-0.2,0L68.1,33l-4.4-0.1
	c-0.1,0-0.2,0.1-0.3,0.2l-5.2,6.5C57.9,40,57.4,40,57,39.8c-0.1-0.1-0.1-0.1-0.2-0.2L51.6,33c-0.1-0.1-0.2-0.2-0.3-0.2L46.9,33
	l-26.6,1.7c-1.9,0.1-3.4,1.8-3.2,3.7c0,0.1,0,0.1,0,0.2C17.3,40.3,18.7,41.6,20.5,41.6L20.5,41.6z M88.7,65.1c4.8,0,8.8-3.9,8.8-8.8
	s-3.9-8.8-8.8-8.8c-4.8,0-8.8,3.9-8.8,8.8l0,0C79.9,61.2,83.9,65.1,88.7,65.1z M94.2,67.4c-0.1,0-0.2,0.1-0.3,0.1l-4.6,5.7
	c-0.3,0.4-0.9,0.5-1.3,0.1c-0.1,0-0.1-0.1-0.1-0.1l-4.6-5.7c-0.1-0.1-0.2-0.1-0.3-0.1h-2.7c-4.1,0-7.4,3.3-7.4,7.4
	c0,0.3,0,0.6,0,0.8l2.2,19c0.3,2.4,1.9,4.4,4.1,5.2l0.9,7.8h17L98,100c2.3-0.8,4-2.8,4.3-5.3l2.2-19c0.5-4.1-2.5-7.8-6.6-8.2
	c-0.3,0-0.6,0-0.8,0L94.2,67.4z M17.5,56.3c0,4.8,3.9,8.8,8.8,8.8s8.8-3.9,8.8-8.8s-3.9-8.8-8.8-8.8l0,0
	C21.4,47.6,17.5,51.5,17.5,56.3z M12.7,94.7c0.3,2.4,1.9,4.4,4.1,5.2l0.9,7.8h17.1l0.8-7.8c2.3-0.8,4-2.8,4.3-5.3l2.2-19
	c0.5-4.1-2.5-7.8-6.6-8.2c-0.3,0-0.6,0-0.8,0h-2.9c-0.1,0-0.2,0.1-0.3,0.1l-4.6,5.7c-0.3,0.4-0.9,0.5-1.3,0.1
	c-0.1,0-0.1-0.1-0.1-0.1L21,67.6c-0.1-0.1-0.2-0.1-0.3-0.1H18c-4.1,0-7.4,3.3-7.4,7.4c0,0.3,0,0.6,0,0.8L12.7,94.7z"/>
</svg>
