<svg id="Outline" height="512" viewBox="0 0 512 512" width="512" xmlns="http://www.w3.org/2000/svg"><path d="m472 24h-432a24.028 24.028 0 0 0 -24 24v416a24.028 24.028 0 0 0 24 24h432a24.028 24.028 0 0 0 24-24v-416a24.028 24.028 0 0 0 -24-24zm-432 16h432a8.009 8.009 0 0 1 8 8v40h-448v-40a8.009 8.009 0 0 1 8-8zm432 432h-432a8.009 8.009 0 0 1 -8-8v-360h448v360a8.009 8.009 0 0 1 -8 8z"/><circle cx="120" cy="64" r="8"/><circle cx="88" cy="64" r="8"/><circle cx="56" cy="64" r="8"/><path d="m72 152h80a8 8 0 0 0 0-16h-80a8 8 0 0 0 0 16z"/><path d="m440 136h-160a8 8 0 0 0 -8 8v32a8 8 0 0 0 8 8h160a8 8 0 0 0 8-8v-32a8 8 0 0 0 -8-8zm-8 32h-144v-16h144z"/><path d="m440 200h-160a8 8 0 0 0 -8 8v32a8 8 0 0 0 8 8h160a8 8 0 0 0 8-8v-32a8 8 0 0 0 -8-8zm-8 32h-144v-16h144z"/><path d="m440 264h-160a8 8 0 0 0 -8 8v96a8 8 0 0 0 8 8h160a8 8 0 0 0 8-8v-96a8 8 0 0 0 -8-8zm-8 96h-144v-80h144z"/><path d="m376 392h-32a24 24 0 0 0 0 48h32a24 24 0 0 0 0-48zm0 32h-32a8 8 0 0 1 0-16h32a8 8 0 0 1 0 16z"/><path d="m104 168a8 8 0 0 0 0 16h16a8 8 0 0 0 0-16z"/><path d="m232 168h-80a8 8 0 0 0 0 16h80a8 8 0 0 0 0-16z"/><path d="m72 216h80a8 8 0 0 0 0-16h-80a8 8 0 0 0 0 16z"/><path d="m232 200h-48a8 8 0 0 0 0 16h48a8 8 0 0 0 0-16z"/><path d="m200 232h-96a8 8 0 0 0 0 16h96a8 8 0 0 0 0-16z"/><circle cx="72" cy="240" r="8"/><path d="m200 264h-96a8 8 0 0 0 0 16h96a8 8 0 0 0 0-16z"/><circle cx="72" cy="272" r="8"/><path d="m200 296h-96a8 8 0 0 0 0 16h96a8 8 0 0 0 0-16z"/><circle cx="72" cy="304" r="8"/></svg>