<svg xmlns="http://www.w3.org/2000/svg" width="24" height="24" viewBox="0 0 24 24">
  <g id="Manage_Portfolio" data-name="Manage Portfolio" transform="translate(-19601 -18488)">
    <g id="Group_1608" data-name="Group 1608" transform="translate(0 1)">
      <rect id="Rectangle_1510" data-name="Rectangle 1510" width="24" height="24" transform="translate(19601 18487)" fill="none"/>
      <g id="briefcase_1_" data-name="briefcase (1)" transform="translate(19601 18448.051)">
        <g id="Group_1597" data-name="Group 1597" transform="translate(0 40.95)">
          <g id="Group_1596" data-name="Group 1596" transform="translate(0 0)">
            <path id="Path_3071" data-name="Path 3071" d="M22.838,44.824H17.031V42.887a1.94,1.94,0,0,0-1.937-1.937H8.906a1.94,1.94,0,0,0-1.937,1.937v1.937H1.162A1.161,1.161,0,0,0,0,45.986V59.923a1.16,1.16,0,0,0,1.162,1.157H22.838A1.161,1.161,0,0,0,24,59.918V45.981A1.16,1.16,0,0,0,22.838,44.824ZM7.743,42.887a1.161,1.161,0,0,1,1.162-1.162H15.1a1.161,1.161,0,0,1,1.162,1.162v1.937H7.743Zm-6.969,3.1a.389.389,0,0,1,.387-.387H22.838a.389.389,0,0,1,.387.387v6.581H17.031V52.18a.775.775,0,0,0-.775-.775h-.288c-.019-.052-.043-.109-.066-.161l.208-.208a.776.776,0,0,0,0-1.1l-1.1-1.1a.776.776,0,0,0-1.1,0l-.208.208c-.052-.024-.109-.047-.161-.066v-.293a.775.775,0,0,0-.775-.775h-1.55a.775.775,0,0,0-.775.775v.293c-.052.019-.109.043-.161.066l-.208-.208a.776.776,0,0,0-1.1,0l-1.1,1.1a.776.776,0,0,0,0,1.1l.208.208c-.024.052-.047.109-.066.161H7.739a.775.775,0,0,0-.775.775v.387H.775V45.986Zm14.783,9.43-1.1,1.1-.6-.6-.25.132a3.322,3.322,0,0,1-.562.236l-.269.085v.85H11.23v-.85l-.269-.085a3.028,3.028,0,0,1-.562-.236l-.25-.132-.6.6-1.1-1.1.6-.6-.132-.25A3.563,3.563,0,0,1,8.683,54L8.6,53.734h-.85v-1.55H8.6l.085-.269a3.386,3.386,0,0,1,.236-.562l.132-.25-.6-.6,1.1-1.1.6.6.25-.132a3.322,3.322,0,0,1,.562-.236l.269-.085V48.7h1.55v.85l.269.085a3.028,3.028,0,0,1,.562.236l.25.132.6-.6,1.1,1.1-.6.6.132.25a3.759,3.759,0,0,1,.236.562l.085.269h.85v1.55h-.85L15.326,54a3.028,3.028,0,0,1-.236.562l-.132.25Zm7.677,4.507a.4.4,0,0,1-.4.383H1.162a.389.389,0,0,1-.387-.387V53.342H6.969v.387a.775.775,0,0,0,.775.775h.293c.024.052.043.109.066.161l-.208.208a.776.776,0,0,0,0,1.1l1.1,1.1a.776.776,0,0,0,1.1,0l.208-.208c.052.024.109.047.161.066v.293a.775.775,0,0,0,.775.775h1.55a.775.775,0,0,0,.775-.775v-.293c.052-.019.109-.043.161-.066l.208.208a.776.776,0,0,0,1.1,0l1.1-1.1a.776.776,0,0,0,0-1.1l-.208-.208c.024-.052.047-.109.066-.161h.293a.775.775,0,0,0,.775-.775v-.387h6.194Z" transform="translate(0 -40.95)" fill="#3977ff"/>
          </g>
        </g>
        <g id="Group_1599" data-name="Group 1599" transform="translate(11.613 43.114)">
          <g id="Group_1598" data-name="Group 1598" transform="translate(0 0)">
            <rect id="Rectangle_1507" data-name="Rectangle 1507" width="0.775" height="0.775" fill="#3977ff"/>
          </g>
        </g>
        <g id="Group_1601" data-name="Group 1601" transform="translate(13.162 43.114)">
          <g id="Group_1600" data-name="Group 1600" transform="translate(0 0)">
            <rect id="Rectangle_1508" data-name="Rectangle 1508" width="0.775" height="0.775" fill="#3977ff"/>
          </g>
        </g>
        <g id="Group_1603" data-name="Group 1603" transform="translate(10.063 43.114)">
          <g id="Group_1602" data-name="Group 1602" transform="translate(0 0)">
            <rect id="Rectangle_1509" data-name="Rectangle 1509" width="0.775" height="0.775" fill="#3977ff"/>
          </g>
        </g>
        <g id="Group_1605" data-name="Group 1605" transform="translate(9.288 50.243)">
          <g id="Group_1604" data-name="Group 1604" transform="translate(0 0)">
            <path id="Path_3072" data-name="Path 3072" d="M199.312,237.65a2.712,2.712,0,1,0,2.712,2.712A2.715,2.715,0,0,0,199.312,237.65Zm0,4.644a1.937,1.937,0,1,1,1.937-1.937A1.94,1.94,0,0,1,199.312,242.294Z" transform="translate(-196.6 -237.65)" fill="#3977ff"/>
          </g>
        </g>
      </g>
    </g>
    <g id="caution" transform="translate(19609.824 18498.117)">
      <path id="Path_3093" data-name="Path 3093" d="M100.1,306a.1.1,0,1,0,.1.1A.1.1,0,0,0,100.1,306Zm0,0" transform="translate(-98.047 -301.743)" fill="#3977ff"/>
      <path id="Path_3096" data-name="Path 3096" d="M100.1,188.012a.1.1,0,0,0-.1.1v.778a.1.1,0,0,0,.2,0v-.778A.1.1,0,0,0,100.1,188.012Zm0,0" transform="translate(-98.047 -184.932)" fill="#3977ff"/>
      <path id="Path_3097" data-name="Path 3097" d="M226.3,326a.3.3,0,1,0,.3.3A.3.3,0,0,0,226.3,326Zm0,.4a.1.1,0,1,1,.1-.1A.1.1,0,0,1,226.3,326.4Zm0,0" transform="translate(-222.79 -321.544)" fill="#3977ff"/>
      <path id="Path_3098" data-name="Path 3098" d="M226.5,126h-.4a.1.1,0,0,0-.1.1v1.6a.1.1,0,0,0,.1.1h.4a.1.1,0,0,0,.1-.1v-1.6A.1.1,0,0,0,226.5,126Zm-.1,1.6h-.2v-1.4h.2Zm0,0" transform="translate(-222.79 -123.539)" fill="#3977ff"/>
    </g>
  </g>
</svg>
