<svg id="SvgjsSvg1001" width="288" height="288" xmlns="http://www.w3.org/2000/svg" version="1.1" xmlns:xlink="http://www.w3.org/1999/xlink" xmlns:svgjs="http://svgjs.com/svgjs"><defs id="SvgjsDefs1002"></defs><g id="SvgjsG1008" transform="matrix(0.9167,0,0,0.9167,11.995200000000011,11.995200000000011)"><svg xmlns="http://www.w3.org/2000/svg" width="288" height="288" viewBox="0 0 24 24"><path d="M 20.890625 0.859375 C 20.820312 0.789062 20.722656 0.75 20.625 0.75 L 17.625 0.75 C 17.417969 0.75 17.25 0.917969 17.25 1.125 L 17.25 7.125 C 17.25 7.332031 17.417969 7.5 17.625 7.5 L 19.875 7.5 L 19.875 8.625 L 12.375 8.625 L 12.375 7.5 L 14.625 7.5 C 14.832031 7.5 15 7.332031 15 7.125 L 15 3.375 C 15 3.277344 14.960938 3.179688 14.890625 3.109375 L 12.640625 0.859375 C 12.570312 0.789062 12.472656 0.75 12.375 0.75 L 9.375 0.75 C 9.167969 0.75 9 0.917969 9 1.125 L 9 7.125 C 9 7.332031 9.167969 7.5 9.375 7.5 L 11.625 7.5 L 11.625 8.625 L 4.125 8.625 L 4.125 7.5 L 6.375 7.5 C 6.582031 7.5 6.75 7.332031 6.75 7.125 L 6.75 3.375 C 6.75 3.277344 6.710938 3.179688 6.640625 3.109375 L 4.390625 0.859375 C 4.320312 0.789062 4.222656 0.75 4.125 0.75 L 1.125 0.75 C 0.917969 0.75 0.75 0.917969 0.75 1.125 L 0.75 7.125 C 0.75 7.332031 0.917969 7.5 1.125 7.5 L 3.375 7.5 L 3.375 9 C 3.375 9.207031 3.542969 9.375 3.75 9.375 L 11.625 9.375 L 11.625 10.5 L 9 10.5 C 8.792969 10.5 8.625 10.667969 8.625 10.875 L 8.625 13.875 C 8.625 14.082031 8.792969 14.25 9 14.25 L 15 14.25 C 15.207031 14.25 15.375 14.082031 15.375 13.875 L 15.375 12.75 L 18.375 12.75 C 19.410156 12.75 20.25 13.589844 20.25 14.625 C 20.25 15.660156 19.410156 16.5 18.375 16.5 L 16.65625 16.5 L 17.140625 16.015625 L 16.609375 15.484375 L 15.484375 16.609375 C 15.410156 16.683594 15.375 16.777344 15.375 16.875 C 15.375 16.972656 15.410156 17.066406 15.484375 17.140625 L 16.609375 18.265625 L 17.140625 17.734375 L 16.65625 17.25 L 18.375 17.25 C 19.824219 17.25 21 16.074219 21 14.625 C 21 13.175781 19.824219 12 18.375 12 L 15.375 12 L 15.375 10.875 C 15.375 10.667969 15.207031 10.5 15 10.5 L 12.375 10.5 L 12.375 9.375 L 20.25 9.375 C 20.457031 9.375 20.625 9.207031 20.625 9 L 20.625 7.5 L 22.875 7.5 C 23.082031 7.5 23.25 7.332031 23.25 7.125 L 23.25 3.375 C 23.25 3.277344 23.210938 3.179688 23.140625 3.109375 Z M 9.75 1.5 L 12.21875 1.5 L 13.71875 3 L 12.75 3 L 12.75 2.25 L 12 2.25 L 12 3.375 C 12 3.582031 12.167969 3.75 12.375 3.75 L 14.25 3.75 L 14.25 6.75 L 9.75 6.75 Z M 1.5 1.5 L 3.96875 1.5 L 5.46875 3 L 4.5 3 L 4.5 2.25 L 3.75 2.25 L 3.75 3.375 C 3.75 3.582031 3.917969 3.75 4.125 3.75 L 6 3.75 L 6 6.75 L 1.5 6.75 Z M 14.625 13.5 L 9.375 13.5 L 9.375 11.25 L 14.625 11.25 Z M 18 6.75 L 18 1.5 L 20.46875 1.5 L 21.96875 3 L 21 3 L 21 2.25 L 20.25 2.25 L 20.25 3.375 C 20.25 3.582031 20.417969 3.75 20.625 3.75 L 22.5 3.75 L 22.5 6.75 Z M 18 6.75 " fill="#3799ff" class="color000 svgShape"></path><path d="M 15 15 L 9 15 C 8.792969 15 8.625 15.167969 8.625 15.375 L 8.625 16.5 L 5.625 16.5 C 4.175781 16.5 3 17.675781 3 19.125 C 3 20.574219 4.175781 21.75 5.625 21.75 L 7.34375 21.75 L 6.859375 22.234375 L 7.390625 22.765625 L 8.515625 21.640625 C 8.589844 21.566406 8.625 21.472656 8.625 21.375 C 8.625 21.277344 8.589844 21.183594 8.515625 21.109375 L 7.390625 19.984375 L 6.859375 20.515625 L 7.34375 21 L 5.625 21 C 4.589844 21 3.75 20.160156 3.75 19.125 C 3.75 18.089844 4.589844 17.25 5.625 17.25 L 8.625 17.25 L 8.625 18.375 C 8.625 18.582031 8.792969 18.75 9 18.75 L 15 18.75 C 15.207031 18.75 15.375 18.582031 15.375 18.375 L 15.375 15.375 C 15.375 15.167969 15.207031 15 15 15 Z M 14.625 18 L 9.375 18 L 9.375 15.75 L 14.625 15.75 Z M 14.625 18 " fill="#3799ff" class="color000 svgShape"></path><path d="M 9 23.25 L 15 23.25 C 15.207031 23.25 15.375 23.082031 15.375 22.875 L 15.375 19.875 C 15.375 19.667969 15.207031 19.5 15 19.5 L 9 19.5 C 8.792969 19.5 8.625 19.667969 8.625 19.875 L 8.625 22.875 C 8.625 23.082031 8.792969 23.25 9 23.25 Z M 9.375 20.25 L 14.625 20.25 L 14.625 22.5 L 9.375 22.5 Z M 9.375 20.25 " fill="#3799ff" class="color000 svgShape"></path></svg></g></svg>