<svg height="1065pt" viewBox="-33 -109 1065.0001 1065" width="1065pt" xmlns="http://www.w3.org/2000/svg" fill="#f0f0f0"><path d="m740.832031 142.917969-38.289062-149.746094h-410.683594l-38.292969 149.746094h-117.199218v-75.949219h-58.507813v75.949219h-79.878906v697.375h998.4375v-697.375zm-542.1875 289.871093 44.792969-37.636718 31.210938 37.152344c22.367187-104.46875 115.398437-183.046876 226.453124-183.046876 94.691407 0 178.929688 56.675782 214.605469 144.394532l-54.199219 22.03125c-26.65625-65.5625-89.625-107.925782-160.40625-107.925782-83.246093 0-152.945312 59.0625-169.402343 137.492188l47.128906-38.703125 37.132813 45.214844-119.160157 97.863281zm520.652344 202.25-16.113281-41.265624c-12.695313 22.824218-29.265625 43.519531-49.191406 61.0625-42.15625 37.144531-96.453126 57.59375-152.890626 57.59375-68.625 0-133.304687-30.167969-177.460937-82.78125l44.804687-37.609376c33.019532 39.332032 81.371094 61.890626 132.65625 61.890626 42.183594 0 82.75-15.265626 114.210938-42.996094 17.164062-15.105469 30.960938-33.339844 40.855469-53.519532l-60.265625 23.539063-21.28125-54.5 143.230468-55.929687 55.941407 143.226562zm0 0"/></svg>
